<svg width="98" height="28" viewBox="0 0 98 28" fill="none" xmlns="http://www.w3.org/2000/svg">
<path d="M0.861328 8.35156C0.861328 7.30859 1.06055 6.33008 1.45898 5.41602C1.85742 4.50195 2.39648 3.70508 3.07617 3.02539C3.76758 2.33398 4.57031 1.78906 5.48438 1.39062C6.39844 0.992187 7.37695 0.792969 8.41992 0.792969H19.9863V5.83789H8.41992C8.06836 5.83789 7.74023 5.90234 7.43555 6.03125C7.13086 6.16016 6.86133 6.3418 6.62695 6.57617C6.4043 6.79883 6.22852 7.0625 6.09961 7.36719C5.9707 7.67188 5.90625 8 5.90625 8.35156C5.90625 8.70312 5.9707 9.03711 6.09961 9.35352C6.22852 9.6582 6.4043 9.92773 6.62695 10.1621C6.86133 10.3848 7.13086 10.5605 7.43555 10.6895C7.74023 10.8184 8.06836 10.8828 8.41992 10.8828H13.4648C14.5078 10.8828 15.4863 11.082 16.4004 11.4805C17.3262 11.8672 18.1289 12.4062 18.8086 13.0977C19.5 13.7773 20.0391 14.5801 20.4258 15.5059C20.8242 16.4199 21.0234 17.3984 21.0234 18.4414C21.0234 19.4844 20.8242 20.4629 20.4258 21.377C20.0391 22.291 19.5 23.0938 18.8086 23.7852C18.1289 24.4648 17.3262 25.0039 16.4004 25.4023C15.4863 25.8008 14.5078 26 13.4648 26H2.26758V20.9551H13.4648C13.8164 20.9551 14.1445 20.8906 14.4492 20.7617C14.7539 20.6328 15.0176 20.457 15.2402 20.2344C15.4746 20 15.6562 19.7305 15.7852 19.4258C15.9141 19.1211 15.9785 18.793 15.9785 18.4414C15.9785 18.0898 15.9141 17.7617 15.7852 17.457C15.6562 17.1523 15.4746 16.8887 15.2402 16.666C15.0176 16.4316 14.7539 16.25 14.4492 16.1211C14.1445 15.9922 13.8164 15.9277 13.4648 15.9277H8.41992C7.37695 15.9277 6.39844 15.7285 5.48438 15.3301C4.57031 14.9316 3.76758 14.3926 3.07617 13.7129C2.39648 13.0215 1.85742 12.2188 1.45898 11.3047C1.06055 10.3789 0.861328 9.39453 0.861328 8.35156ZM29.3906 26H24.3457V0.792969H29.3906V26ZM39.1289 5.83789V15.9277H44.1738C44.8652 15.9277 45.5156 15.7988 46.125 15.541C46.7344 15.2715 47.2676 14.9082 47.7246 14.4512C48.1816 13.9941 48.5391 13.4609 48.7969 12.8516C49.0664 12.2305 49.2012 11.5742 49.2012 10.8828C49.2012 10.1914 49.0664 9.54102 48.7969 8.93164C48.5391 8.31055 48.1816 7.77148 47.7246 7.31445C47.2676 6.85742 46.7344 6.5 46.125 6.24219C45.5156 5.97266 44.8652 5.83789 44.1738 5.83789H39.1289ZM39.1289 26H34.084V0.792969H44.1738C45.0996 0.792969 45.9902 0.916016 46.8457 1.16211C47.7012 1.39648 48.498 1.73633 49.2363 2.18164C49.9863 2.61523 50.666 3.14258 51.2754 3.76367C51.8965 4.37305 52.4238 5.05273 52.8574 5.80273C53.3027 6.55273 53.6426 7.35547 53.877 8.21094C54.123 9.06641 54.2461 9.95703 54.2461 10.8828C54.2461 12.2656 53.9824 13.5723 53.4551 14.8027C52.9277 16.0215 52.207 17.0879 51.293 18.002C50.3789 18.916 49.3066 19.6367 48.0762 20.1641C46.8574 20.6914 45.5566 20.9551 44.1738 20.9551H39.1289V26ZM62.2617 26H57.2168V0.792969H62.2617V26ZM87.1172 26H81.7207L72 9.40625V26H66.9551V0.792969H72.3516L82.0723 17.4043V0.792969H87.1172V26ZM97.207 24.207C97.207 24.6289 97.1309 25.0273 96.9785 25.4023C96.8262 25.7656 96.6152 26.082 96.3457 26.3516C96.0762 26.6211 95.7598 26.832 95.3965 26.9844C95.0332 27.1484 94.6406 27.2305 94.2188 27.2305C93.8086 27.2305 93.416 27.1484 93.041 26.9844C92.6777 26.832 92.3555 26.6211 92.0742 26.3516C91.8047 26.082 91.5879 25.7656 91.4238 25.4023C91.2715 25.0273 91.1953 24.6289 91.1953 24.207C91.1953 23.7969 91.2715 23.4102 91.4238 23.0469C91.5879 22.6836 91.8047 22.3672 92.0742 22.0977C92.3555 21.8281 92.6777 21.6172 93.041 21.4648C93.416 21.3008 93.8086 21.2188 94.2188 21.2188C94.6406 21.2188 95.0332 21.3008 95.3965 21.4648C95.7598 21.6172 96.0762 21.8281 96.3457 22.0977C96.6152 22.3672 96.8262 22.6836 96.9785 23.0469C97.1309 23.4102 97.207 23.7969 97.207 24.207Z" fill="#AAC992"/>
</svg>
